<svg width="574" height="655" viewBox="0 0 574 655" fill="none" xmlns="http://www.w3.org/2000/svg">
<path d="M565.033 555.642C592.977 663.533 555.61 710.41 452.93 696.272C350.25 682.135 264.141 703.341 194.605 759.891C125.068 816.44 47.0835 823.137 -39.3497 779.981C-125.783 736.824 -147.554 661.673 -104.662 554.526C-61.7703 447.379 -56.2464 344.697 -88.0902 246.479C-119.934 148.261 -90.0398 101.012 1.59238 104.733C93.2245 108.453 172.834 85.3866 240.421 35.5335C308.008 -14.3195 374.945 -11.7152 441.232 43.3463C507.519 98.4079 537.738 170.583 531.889 259.872C526.04 349.161 537.088 447.751 565.033 555.642Z" fill="#1D2B52"/>
</svg>
